<?xml version="1.0" encoding="utf-8"?>
<?xml-stylesheet type="text/xsl" href="rss1.xsl"?>
<rss version="2.0" xmlns:atom="http://www.w3.org/2005/Atom" xmlns:content="http://purl.org/rss/1.0/modules/content/" xmlns:dc="http://purl.org/dc/elements/1.1/" xmlns:media="http://search.yahoo.com/mrss/">
<channel>
 <title>Getty</title>
 <link>http://www.gettyimg.com/</link>
 <atom:link href="http://www.gettyimg.com/" rel="self" type="application/rss+xml" />

 
                <item>
                <title><![CDATA[【Albums (lossless)】Don Toliver - Heaven Or Hell (2020) [Qobuz Hi-Res 16bit/44.1kHz] [FLAC]]]></title>
                <link><![CDATA[https://sharemania.us/threads/don-toliver-heaven-or-hell-2020-qobuz-hi-res-16bit-44-1khz-flac.250897/]]></link>
                <description><![CDATA[<article>
<blockquote class="messageText SelectQuoteContainer ugc baseHtml">
Release Date: 2020<br>
Source: <a href="https://www.qobuz.com/us-en/album/heaven-or-hell-don-toliver/qk7y1is6rq7fa" target="_blank" class="externalLink" rel="nofollow">Qobuz</a><br>
Format: 16bit/44.1kHz FLAC<br>
<br>
Tracklist:<br>
<br>
1.Heaven Or Hell Intro<br>
2.Euphoria (feat. Travis Scott &amp; Kaash Paige)<br>
3.Cardigan<br>
4.After Party<br>
5.Wasted<br>
6.Can’t Feel My Legs<br>
7.Candy<br>
8.Company<br>
9.Had Enough (feat. Quavo &amp; Offset)<br>
10.Spaceship (feat. Sheck Wes)<br>
11.No Photos<br>
12.No Idea<br>
<br>
<div class="bbCodeBlock bbCodeVfcHH HiddenContent">
<div class="attribution type">Hidden Content:</div>
<blockquote>You must reply before you can see the hidden data contained here.</blockquote>
</div>
<div class="messageTextEndMarker">&nbsp;</div>
</blockquote>
</article>]]></description>
                <author><![CDATA[phechft]]></author>
                </item>

                
                <item>
                <title><![CDATA[【Apple Music】WEB-RiP - Pitbull - Fun (feat. Chris Brown) (1080p)]]></title>
                <link><![CDATA[https://sharemania.us/threads/pitbull-fun-feat-chris-brown-1080p.250898/]]></link>
                <description><![CDATA[<article>
<blockquote class="messageText SelectQuoteContainer ugc baseHtml">
<img src="https://i.postimg.cc/tJx8QnkF/Pitbull-Fun-feat-Chris-Brown-mp4.jpg" class="bbCodeImage LbImage" alt="[​IMG]" data-url="https://i.postimg.cc/tJx8QnkF/Pitbull-Fun-feat-Chris-Brown-mp4.jpg" style=""><br>
<br>
<div class="bbCodeBlock bbCodeCode">
<div class="type">Code:</div>
<pre>General
Complete name                  : G:\Новая папка\Pitbull - Fun (feat. Chris Brown).mp4
Format                         : MPEG-4
Format profile                 : Base Media
Codec ID                       : isom (isom/iso2/avc1/mp41)
File size                      : 292 MiB
Duration                       : 3 min 59 s
Overall bit rate               : 10.2 Mb/s
Frame rate                     : 23.976 FPS
Movie name                     : Fun (feat. Chris Brown)
Performer                      : Pitbull
Genre                          : Pop
ContentType                    : Music Video
Recorded date                  : 2015-06-19 07:00:00 UTC
Writing application            : Lavf56.30.100
Copyright                      : ℗ (C) 2015 RCA Records, a division of Sony Music Entertainment

Video
ID                             : 1
Format                         : AVC
Format/Info                    : Advanced Video Codec
Format profile                 : High@L4
Format settings                : CABAC / 4 Ref Frames
Format settings, CABAC         : Yes
Format settings, Reference fra : 4 frames
Format settings, Slice count   : 8 slices per frame
Codec ID                       : avc1
Codec ID/Info                  : Advanced Video Coding
Duration                       : 3 min 59 s
Bit rate                       : 9 965 kb/s
Width                          : 1 916 pixels
Height                         : 1 076 pixels
Display aspect ratio           : 16:9
Frame rate mode                : Constant
Frame rate                     : 23.976 (23976/1000) FPS
Color space                    : YUV
Chroma subsampling             : 4:2:0
Bit depth                      : 8 bits
Scan type                      : Progressive
Bits/(Pixel*Frame)             : 0.202
Stream size                    : 285 MiB (97%)
Color range                    : Limited
Color primaries                : BT.709
Transfer characteristics       : BT.709
Matrix coefficients            : BT.709
Codec configuration box        : avcC

Audio
ID                             : 2
Format                         : AAC LC
Format/Info                    : Advanced Audio Codec Low Complexity
Codec ID                       : mp4a-40-2
Duration                       : 3 min 59 s
Duration_LastFrame             : -3 ms
Bit rate mode                  : Constant
Bit rate                       : 252 kb/s
Channel(s)                     : 2 channels
Channel layout                 : L R
Sampling rate                  : 48.0 kHz
Frame rate                     : 46.875 FPS (1024 SPF)
Compression mode               : Lossy
Stream size                    : 7.19 MiB (2%)
Default                        : Yes
Alternate group                : 1

</pre>
</div>
<div class="bbCodeBlock bbCodeVfcHH HiddenContent">
<div class="attribution type">Hidden Content:</div>
<blockquote>You must either reply or click 'Like' to see the hidden information contained here.</blockquote>
</div>
<div class="messageTextEndMarker">&nbsp;</div>
</blockquote>
</article>]]></description>
                <author><![CDATA[vitalya3]]></author>
                </item>

                
                <item>
                <title><![CDATA[【Albums (lossless)】Don Toliver - Heaven Or Hell (Heaven Or Hell) [Qobuz Hi-Res 24bit/176.4kHz] [FLAC]]]></title>
                <link><![CDATA[https://sharemania.us/threads/don-toliver-heaven-or-hell-heaven-or-hell-qobuz-hi-res-24bit-176-4khz-flac.250895/]]></link>
                <description><![CDATA[<article>
<blockquote class="messageText SelectQuoteContainer ugc baseHtml">
Release Date: 2020<br>
Source: <a href="https://www.qobuz.com/us-en/album/heaven-or-hell-don-toliver/qk7y1is6rq7fa" target="_blank" class="externalLink" rel="nofollow">Qobuz</a><br>
Format: 24bit/176.4kHz FLAC<br>
<br>
Tracklist:<br>
<br>
1.Heaven Or Hell Intro<br>
2.Euphoria (feat. Travis Scott &amp; Kaash Paige)<br>
3.Cardigan<br>
4.After Party<br>
5.Wasted<br>
6.Can’t Feel My Legs<br>
7.Candy<br>
8.Company<br>
9.Had Enough (feat. Quavo &amp; Offset)<br>
10.Spaceship (feat. Sheck Wes)<br>
11.No Photos<br>
12.No Idea<br>
<br>
<div class="bbCodeBlock bbCodeVfcHH HiddenContent">
<div class="attribution type">Hidden Content:</div>
<blockquote>You must reply before you can see the hidden data contained here.</blockquote>
</div>
<div class="messageTextEndMarker">&nbsp;</div>
</blockquote>
</article>]]></description>
                <author><![CDATA[phechft]]></author>
                </item>

                
                <item>
                <title><![CDATA[【Albums (lossless)】Deadpool (More Music from the Motion Picture) - VA (2016) [16bit/44.1kHz] [FLAC]]]></title>
                <link><![CDATA[https://sharemania.us/threads/deadpool-more-music-from-the-motion-picture-va-2016-16bit-44-1khz-flac.250894/]]></link>
                <description><![CDATA[<article>
<blockquote class="messageText SelectQuoteContainer ugc baseHtml">
Release Date: 2016<br>
Format: FLAC<br>
<br>
Tracklist:<br>
<br>
01. Teamheadkick - Merc With A Mouth<br>
02. Junkie XL - Fear The T-Rex<br>
03. Junkie XL - Because I Want To<br>
04. The Chordettes - Mister Sandman<br>
05. Junkie XL - Same Mistakes<br>
06. Campfire - The Boys Are Back<br>
07. Junkie XL - Maximum Effort (Night Club Remix)<br>
08. Junkie XL - Twelve Bullets (El Huervo Remix)<br>
09. Chicago - You're The Inspiration<br>
10. Teamheadkick - Deadpool Rap (Brown Pants EDM Mix)<br>
11. Junkie XL - Twelve Bullets (Kreng Remix)<br>
12. Brentwood Duo - Deadpool Rap (Acoustic Version)<br>
<br>
<div class="bbCodeBlock bbCodeVfcHH HiddenContent">
<div class="attribution type">Hidden Content:</div>
<blockquote>You must reply before you can see the hidden data contained here.</blockquote>
</div>
<div class="messageTextEndMarker">&nbsp;</div>
</blockquote>
</article>]]></description>
                <author><![CDATA[phechft]]></author>
                </item>

                
                <item>
                <title><![CDATA[【Apple Music】WEB-RiP - Pitbull - Freedom (1080p)]]></title>
                <link><![CDATA[https://sharemania.us/threads/pitbull-freedom-1080p.250893/]]></link>
                <description><![CDATA[<article>
<blockquote class="messageText SelectQuoteContainer ugc baseHtml">
<img src="https://i.postimg.cc/D0DHRwFt/Pitbull-Freedom-mp4.jpg" class="bbCodeImage LbImage" alt="[​IMG]" data-url="https://i.postimg.cc/D0DHRwFt/Pitbull-Freedom-mp4.jpg" style=""><br>
<br>
<div class="bbCodeBlock bbCodeCode">
<div class="type">Code:</div>
<pre>General
Complete name                  : G:\Новая папка\Pitbull - Freedom.mp4
Format                         : MPEG-4
Format profile                 : Base Media
Codec ID                       : isom (isom/iso2/avc1/mp41)
File size                      : 154 MiB
Duration                       : 3 min 14 s
Overall bit rate               : 6 671 kb/s
Frame rate                     : 23.976 FPS
Movie name                     : Freedom
Performer                      : Pitbull
Genre                          : Pop
ContentType                    : Music Video
Recorded date                  : 2016-02-10 08:00:00 UTC
Writing application            : Lavf56.30.100
Copyright                      : ℗ (C) 2016 RCA Records, a division of Sony Music Entertainment

Video
ID                             : 1
Format                         : AVC
Format/Info                    : Advanced Video Codec
Format profile                 : High@L4
Format settings                : CABAC / 4 Ref Frames
Format settings, CABAC         : Yes
Format settings, Reference fra : 4 frames
Format settings, Slice count   : 8 slices per frame
Codec ID                       : avc1
Codec ID/Info                  : Advanced Video Coding
Duration                       : 3 min 14 s
Bit rate                       : 6 416 kb/s
Width                          : 1 916 pixels
Height                         : 1 076 pixels
Display aspect ratio           : 16:9
Frame rate mode                : Constant
Frame rate                     : 23.976 (24000/1001) FPS
Color space                    : YUV
Chroma subsampling             : 4:2:0
Bit depth                      : 8 bits
Scan type                      : Progressive
Bits/(Pixel*Frame)             : 0.130
Stream size                    : 148 MiB (96%)
Color range                    : Limited
Color primaries                : BT.709
Transfer characteristics       : BT.709
Matrix coefficients            : BT.709
Codec configuration box        : avcC

Audio
ID                             : 2
Format                         : AAC LC
Format/Info                    : Advanced Audio Codec Low Complexity
Codec ID                       : mp4a-40-2
Duration                       : 3 min 14 s
Duration_LastFrame             : -20 ms
Bit rate mode                  : Constant
Bit rate                       : 251 kb/s
Channel(s)                     : 2 channels
Channel layout                 : L R
Sampling rate                  : 48.0 kHz
Frame rate                     : 46.875 FPS (1024 SPF)
Compression mode               : Lossy
Stream size                    : 5.80 MiB (4%)
Default                        : Yes
Alternate group                : 1

</pre>
</div>
<div class="bbCodeBlock bbCodeVfcHH HiddenContent">
<div class="attribution type">Hidden Content:</div>
<blockquote>You must either reply or click 'Like' to see the hidden information contained here.</blockquote>
</div>
<div class="messageTextEndMarker">&nbsp;</div>
</blockquote>
</article>]]></description>
                <author><![CDATA[vitalya3]]></author>
                </item>

                
                <item>
                <title><![CDATA[【Helpdesk】How to play 12 channel WAV 360RA on modern hardware?]]></title>
                <link><![CDATA[https://sharemania.us/threads/how-to-play-12-channel-wav-360ra-on-modern-hardware.250896/]]></link>
                <description><![CDATA[<article>
<blockquote class="messageText SelectQuoteContainer ugc baseHtml">
Hi folks, I have a question:<br>
I got a Sony HT-A9 system and Zidoo Z20 Pro media server.<br>
Tech specs saying that the Sony HT-A9 emulates 12 phantom speakers.<br>
The Zidoo media player has audio passtrough enabeled and when I use <br>
the internal media browser or music player nothing happening, only a warning that the song is skipped due to missing codec.<br>
I use for example one of the 12 channel WAV files wich has 360RA audio:<br>
<a href="https://sharemania.us/threads/victoria-mon%C3%A9t-jaguar-ii-360ra-mpeg-h-3d-audio-wav-decoded-12-channels.236159/" class="internalLink">https://sharemania.us/threads/victo...eg-h-3d-audio-wav-decoded-12-channels.236159/</a><br>
Now I have installed VLC media player and I am able to play those 12 channel files but did not really hear the atmospherics from the recording studio, it looks like the rear speakers are not in use.<br>
Any tech help would be appreciated.
<div class="messageTextEndMarker">&nbsp;</div>
</blockquote>
</article>]]></description>
                <author><![CDATA[0dayuser]]></author>
                </item>

                </channel></rss>